<svg width="368" height="466" viewBox="0 0 368 466" fill="none" xmlns="http://www.w3.org/2000/svg">
<rect x="2.5" y="65.5" width="258" height="398" rx="12.5" stroke="#2A7B88" stroke-width="5"/>
<rect x="10.5" y="73.5" width="242" height="380" rx="12.5" fill="#CAC8C8" stroke="#2A7B88" stroke-width="5"/>
<path d="M146.347 13C146.347 18.2467 142.094 22.5 136.847 22.5C131.6 22.5 127.347 18.2467 127.347 13C127.347 7.75329 131.6 3.5 136.847 3.5C142.094 3.5 146.347 7.75329 146.347 13Z" stroke="#454545" stroke-width="7"/>
<line x1="102.389" y1="61.5667" x2="127.481" y2="16.0538" stroke="#454545" stroke-width="7"/>
<line x1="172.954" y1="60.7583" x2="146.969" y2="15.75" stroke="#454545" stroke-width="7"/>
<rect x="94" y="55" width="88" height="23" fill="black"/>
<line y1="-15.5" x2="95.6849" y2="-15.5" transform="matrix(0.666558 0.745453 -0.666558 0.745453 131 244.58)" stroke="#2A7B88" stroke-width="31"/>
<line y1="-15.5" x2="240.324" y2="-15.5" transform="matrix(0.721316 -0.692607 0.608953 0.793207 194.65 316.45)" stroke="#2A7B88" stroke-width="31"/>
</svg>
